<svg xmlns="http://www.w3.org/2000/svg" viewBox="0 0 499.03122 499.35806" height="499.358" width="499.031"><path d="M211.313 441.542l88.404-12.726-49.868 63.042zm-62.909-82.839l235.44-35.44-53.955 60.227-143.496 23.378zm-30.753-44.51L79.443 261.99l391.59-47.445-47.231 57.99zM-.962 134.593C29.45 87.83 54.765 53.654 88.614 6.313h319.094l90.264 140.021c-3.41 7.357-15.57 31.383-19.771 33.218-6.863 2.997-403.175 50.881-417.471 50.881zm464.114 22.838c-424.6 274.758-212.3 137.38 0 0zM230.72 27.77c-39.471-.434-98.04-2.178-136.339.292l66.717 94.265c24.827-33.405 43.579-59.078 69.622-94.557zm156.817-2.384c-39.53.563-91.31-1.604-129.865 2.816l79.038 86.342z" fill="#4d4d4d"/></svg>